<?xml version="1.0" encoding="UTF-8"?>
<svg id="_레이어_1" data-name="레이어 1" xmlns="http://www.w3.org/2000/svg" viewBox="0 0 1366 339.54">
  <defs>
    <style>
      .cls-1 {
        fill: #ff511c;
      }

      .cls-2 {
        fill: #02193e;
      }
    </style>
  </defs>
  <path class="cls-2" d="M48.5,121.62h36.71v183.53h-36.71V121.62Z"/>
  <path class="cls-2" d="M223.31,116.53c11.63,0,22.41,2,32.34,6,9.93,4,18.53,9.45,25.8,16.35,7.27,6.91,13.02,15.08,17.26,24.53,4.24,9.45,6.36,19.75,6.36,30.89v110.84h-36.71v-97.4c0-8.96-1.22-16.84-3.63-23.62-2.42-6.78-5.88-12.48-10.36-17.08-4.49-4.6-9.81-8.11-15.99-10.54-6.18-2.42-12.66-3.63-19.44-3.63-8.97,0-16.72,1.45-23.26,4.36-6.54,2.91-12.06,6.97-16.54,12.17-4.49,5.21-7.88,11.33-10.18,18.35-2.31,7.03-3.45,14.9-3.45,23.62v93.76h-36.71V121.25h36.71v22.17c3.15-4.6,6.96-8.54,11.45-11.81,4.48-3.27,9.27-6.05,14.35-8.36,5.09-2.3,10.36-4,15.81-5.09,5.45-1.09,10.84-1.64,16.17-1.64Z"/>
  <path class="cls-2" d="M450.28,121.62h36.71v183.53h-36.71V121.62Z"/>
  <path class="cls-2" d="M468.81,47.84c6.78,0,12.66,2.49,17.63,7.45,4.96,4.97,7.45,10.85,7.45,17.63s-2.49,12.96-7.45,17.81c-4.97,4.85-10.85,7.27-17.63,7.27-7.27,0-13.33-2.42-18.17-7.27-4.85-4.85-7.27-10.78-7.27-17.81s2.42-12.66,7.27-17.63c4.84-4.96,10.9-7.45,18.17-7.45Z"/>
  <path class="cls-2" d="M625.08,116.53c11.63,0,22.41,2,32.34,6,9.93,4,18.53,9.45,25.8,16.35,7.27,6.91,13.02,15.08,17.26,24.53,4.24,9.45,6.36,19.75,6.36,30.89v110.84h-36.71v-97.4c0-8.96-1.22-16.84-3.63-23.62-2.42-6.78-5.88-12.48-10.36-17.08-4.49-4.6-9.81-8.11-15.99-10.54-6.18-2.42-12.66-3.63-19.44-3.63-8.97,0-16.72,1.45-23.26,4.36-6.54,2.91-12.06,6.97-16.54,12.17-4.49,5.21-7.88,11.33-10.18,18.35-2.31,7.03-3.45,14.9-3.45,23.62v93.76h-36.71V121.25h36.71v22.17c3.15-4.6,6.96-8.54,11.45-11.81,4.48-3.27,9.27-6.05,14.35-8.36,5.09-2.3,10.36-4,15.81-5.09,5.45-1.09,10.84-1.64,16.17-1.64Z"/>
  <path class="cls-2" d="M765.36,223.01c.97,7.27,3.15,13.93,6.54,19.99,3.39,6.06,7.63,11.33,12.72,15.81,5.09,4.49,10.84,8,17.26,10.54,6.42,2.54,13.14,3.82,20.17,3.82,15.5,0,27.8-2.91,36.89-8.72,9.09-5.81,16.41-15.5,21.99-29.07l33.44,14.9c-8.48,19.87-20.17,34.71-35.07,44.52-14.9,9.81-33.98,14.72-57.24,14.72-12.84,0-25.02-2.54-36.52-7.63-11.51-5.09-21.5-11.99-29.98-20.71-8.48-8.72-15.21-18.96-20.17-30.71-4.97-11.75-7.45-24.29-7.45-37.61s2.48-25.8,7.45-37.43c4.96-11.63,11.69-21.81,20.17-30.53,8.48-8.72,18.47-15.63,29.98-20.71,11.51-5.09,23.68-7.63,36.52-7.63s25.38,2.54,36.89,7.63c11.5,5.09,21.5,11.99,29.98,20.71,8.48,8.72,15.2,18.9,20.17,30.53,4.96,11.63,7.45,24.11,7.45,37.43,0,1.7-.06,3.4-.18,5.09-.13,1.7-.18,3.4-.18,5.09h-150.82ZM877.3,196.85c-1.7-6.3-4.3-12.11-7.81-17.44-3.51-5.33-7.63-9.93-12.36-13.81-4.73-3.87-10.06-6.96-15.99-9.27-5.94-2.3-12.3-3.45-19.08-3.45s-12.84,1.15-18.9,3.45c-6.06,2.3-11.45,5.39-16.17,9.27-4.73,3.88-8.85,8.48-12.36,13.81-3.52,5.33-6,11.15-7.45,17.44h110.12Z"/>
  <path class="cls-2" d="M1032.21,116.53c13.08,0,25.38,2.54,36.89,7.63,11.5,5.09,21.5,11.99,29.98,20.71,8.48,8.72,15.2,18.96,20.17,30.71,4.96,11.75,7.45,24.29,7.45,37.61s-2.49,25.8-7.45,37.43c-4.97,11.63-11.69,21.81-20.17,30.53-8.48,8.72-18.48,15.63-29.98,20.71-11.51,5.09-23.69,7.63-36.52,7.63s-25.38-2.54-36.89-7.63c-11.51-5.09-21.5-11.99-29.98-20.71-8.48-8.72-15.21-18.9-20.17-30.53-4.97-11.63-7.45-24.11-7.45-37.43s2.48-25.86,7.45-37.61c4.96-11.75,11.69-21.99,20.17-30.71,8.48-8.72,18.47-15.63,29.98-20.71,11.51-5.09,23.68-7.63,36.52-7.63ZM1032.21,152.87c-8,0-15.45,1.58-22.35,4.73-6.91,3.15-13.03,7.45-18.35,12.9-5.33,5.45-9.51,11.81-12.54,19.08-3.03,7.27-4.54,15.14-4.54,23.62s1.51,15.99,4.54,23.26c3.03,7.27,7.21,13.63,12.54,19.08,5.33,5.45,11.45,9.76,18.35,12.9,6.9,3.15,14.35,4.73,22.35,4.73s15.56-1.57,22.71-4.73c7.14-3.15,13.32-7.45,18.53-12.9,5.21-5.45,9.32-11.81,12.36-19.08,3.03-7.27,4.54-15.02,4.54-23.26s-1.52-16.35-4.54-23.62c-3.03-7.27-7.15-13.63-12.36-19.08-5.21-5.45-11.39-9.75-18.53-12.9-7.15-3.15-14.72-4.73-22.71-4.73Z"/>
  <path class="cls-2" d="M1242.63,116.53c11.63,0,22.41,2,32.34,6,9.93,4,18.53,9.45,25.8,16.35,7.27,6.91,13.02,15.08,17.26,24.53,4.24,9.45,6.36,19.75,6.36,30.89v110.84h-36.71v-97.4c0-8.96-1.22-16.84-3.63-23.62-2.42-6.78-5.88-12.48-10.36-17.08-4.49-4.6-9.81-8.11-15.99-10.54-6.18-2.42-12.66-3.63-19.44-3.63-8.97,0-16.72,1.45-23.26,4.36-6.54,2.91-12.06,6.97-16.54,12.17-4.49,5.21-7.88,11.33-10.18,18.35-2.31,7.03-3.45,14.9-3.45,23.62v93.76h-36.71V121.25h36.71v22.17c3.15-4.6,6.96-8.54,11.45-11.81,4.48-3.27,9.27-6.05,14.35-8.36,5.09-2.3,10.36-4,15.81-5.09,5.45-1.09,10.84-1.64,16.17-1.64Z"/>
  <path class="cls-1" d="M67.04,47.84c6.78,0,12.66,2.49,17.63,7.45,4.96,4.97,7.45,10.85,7.45,17.63s-2.49,12.96-7.45,17.81c-4.97,4.85-10.85,7.27-17.63,7.27-7.27,0-13.33-2.42-18.17-7.27-4.85-4.85-7.27-10.78-7.27-17.81s2.42-12.66,7.27-17.63c4.84-4.96,10.9-7.45,18.17-7.45Z"/>
  <path class="cls-2" d="M419.27,66.38c-4.85,0-9.39.91-13.63,2.73-4.24,1.82-7.88,4.3-10.9,7.45-3.03,3.15-5.45,6.79-7.27,10.9-1.82,4.12-2.73,8.6-2.73,13.45v20.35h33.44v36.34h-33.44v147.55h-36.34v-147.55h-25.8v-36.34h25.8v-20.35c0-9.93,1.82-19.14,5.45-27.62,3.63-8.48,8.66-15.99,15.08-22.53,6.42-6.54,13.93-11.63,22.53-15.26,8.6-3.63,17.86-5.45,27.8-5.45v36.34Z"/>
</svg>