<?xml version="1.0" encoding="UTF-8"?>
<svg id="_레이어_1" data-name="레이어 1" xmlns="http://www.w3.org/2000/svg" viewBox="0 0 1366 768">
  <defs>
    <style>
      .cls-1 {
        fill: #0c5efb;
      }
    </style>
  </defs>
  <path class="cls-1" d="M1305.49,384v311.24h-124.5v-311.24c0-92.36-67.42-169.29-155.62-184.14-10.12-1.72-20.53-2.6-31.12-2.6-54.43,0-98.13,18.65-141.69,60.47-36.91,35.43-68.5,82.6-100.66,133.59h0c-5.35,8.48-10.71,17.04-16.11,25.68-23.47,37.56-47.42,75.87-74.06,111.6-19.02,25.56-39.44,49.79-62.05,71.5-66.69,64.03-141.25,95.15-227.92,95.15-10.47,0-20.85-.51-31.12-1.53-71.37-7.03-137.56-38.25-188.95-89.64-58.79-58.79-91.17-136.95-91.17-220.07s32.38-161.3,91.17-220.09c58.79-58.79,136.95-91.16,220.07-91.16s165,30.75,231.49,91.42c22.75,20.77,44.05,44.67,64.46,72.54-22.68,31.87-43.46,65.1-63.89,97.79-3.34,5.35-6.67,10.67-9.98,15.95-24.05-39.63-48.67-70.75-74.49-94.31-43.45-39.64-91.73-58.9-147.59-58.9-102.97,0-186.75,83.77-186.75,186.75,0,92.36,67.42,169.29,155.62,184.14,10.12,1.72,20.53,2.6,31.12,2.6,54.43,0,98.14-18.65,141.69-60.47,35.88-34.44,66.72-79.94,97.93-129.24,6.24-9.87,12.51-19.91,18.84-30.03,18.16-29.07,36.63-58.59,56.38-87.01,24.03-34.57,49.99-67.53,79.74-96.09,66.69-64.03,141.24-95.15,227.9-95.15,10.47,0,20.85.51,31.12,1.53,71.39,7.03,137.57,38.23,188.96,89.63,58.79,58.79,91.16,136.95,91.16,220.09Z"/>
  <path class="cls-1" d="M807.5,695.24h-124.5c0-43.19-5.38-86.84-12.84-126.64,34.21-42.62,63.46-89.41,92.03-135.14.71-1.13,1.42-2.27,2.13-3.4,19.21,63.92,43.18,163.93,43.18,265.18Z"/>
</svg>