<?xml version="1.0" encoding="UTF-8"?>
<svg id="_레이어_1" data-name="레이어 1" xmlns="http://www.w3.org/2000/svg" viewBox="0 0 1366 339.54">
  <defs>
    <style>
      .cls-1 {
        fill: #ff511c;
      }

      .cls-2 {
        fill: #02193e;
      }

      .cls-3 {
        fill: #0c5efb;
      }
    </style>
  </defs>
  <g>
    <path class="cls-3" d="M521.48,168.07v120.43h-48.17v-120.43c0-35.74-26.09-65.51-60.22-71.25-3.92-.66-7.94-1.01-12.04-1.01-21.06,0-37.97,7.22-54.83,23.4-14.28,13.71-26.5,31.96-38.95,51.69h0c-2.07,3.28-4.14,6.59-6.23,9.94-9.08,14.53-18.35,29.36-28.66,43.18-7.36,9.89-15.26,19.26-24.01,27.67-25.81,24.78-54.66,36.82-88.19,36.82-4.05,0-8.07-.2-12.04-.59-27.62-2.72-53.23-14.8-73.11-34.68-22.75-22.75-35.28-52.99-35.28-85.16s12.53-62.41,35.28-85.16c22.75-22.75,52.99-35.27,85.16-35.27s63.84,11.9,89.57,35.37c8.8,8.04,17.04,17.28,24.94,28.07-8.78,12.33-16.82,25.19-24.72,37.84-1.29,2.07-2.58,4.13-3.86,6.17-9.31-15.33-18.83-27.38-28.82-36.49-16.81-15.34-35.49-22.79-57.11-22.79-39.84,0-72.26,32.42-72.26,72.26,0,35.74,26.09,65.51,60.22,71.25,3.92.66,7.94,1.01,12.04,1.01,21.06,0,37.97-7.22,54.83-23.4,13.88-13.32,25.82-30.93,37.89-50.01,2.41-3.82,4.84-7.7,7.29-11.62,7.03-11.25,14.17-22.67,21.82-33.67,9.3-13.38,19.34-26.13,30.85-37.18,25.81-24.78,54.65-36.82,88.19-36.82,4.05,0,8.07.2,12.04.59,27.62,2.72,53.23,14.79,73.12,34.68,22.75,22.75,35.27,52.99,35.27,85.16Z"/>
    <path class="cls-3" d="M328.79,288.5h-48.17c0-16.71-2.08-33.6-4.97-49,13.24-16.49,24.55-34.6,35.61-52.29.27-.44.55-.88.82-1.32,7.43,24.73,16.71,63.43,16.71,102.61Z"/>
  </g>
  <g>
    <path class="cls-2" d="M581.58,181.25h21.45v107.24h-21.45v-107.24Z"/>
    <path class="cls-2" d="M683.73,178.28c6.8,0,13.09,1.17,18.9,3.5,5.8,2.34,10.83,5.52,15.08,9.56,4.25,4.04,7.61,8.81,10.09,14.33,2.48,5.52,3.72,11.54,3.72,18.05v64.77h-21.45v-56.91c0-5.24-.71-9.84-2.12-13.8-1.42-3.96-3.43-7.29-6.05-9.98-2.62-2.69-5.73-4.74-9.34-6.16-3.61-1.41-7.4-2.12-11.36-2.12-5.24,0-9.77.85-13.59,2.55-3.82,1.7-7.04,4.07-9.66,7.11-2.62,3.05-4.6,6.62-5.95,10.72-1.35,4.11-2.02,8.71-2.02,13.8v54.79h-21.45v-107.46h21.45v12.95c1.84-2.69,4.07-4.99,6.69-6.9,2.62-1.91,5.42-3.54,8.39-4.88,2.97-1.34,6.05-2.34,9.24-2.97,3.19-.64,6.33-.96,9.45-.96Z"/>
    <path class="cls-2" d="M816.36,181.25h21.45v107.24h-21.45v-107.24Z"/>
    <path class="cls-2" d="M827.19,138.15c3.96,0,7.4,1.45,10.3,4.35,2.9,2.9,4.35,6.34,4.35,10.3s-1.45,7.58-4.35,10.41c-2.9,2.83-6.34,4.25-10.3,4.25-4.25,0-7.79-1.41-10.62-4.25-2.83-2.83-4.25-6.3-4.25-10.41s1.41-7.4,4.25-10.3c2.83-2.9,6.37-4.35,10.62-4.35Z"/>
    <path class="cls-2" d="M918.5,178.28c6.8,0,13.09,1.17,18.9,3.5,5.8,2.34,10.83,5.52,15.08,9.56,4.25,4.04,7.61,8.81,10.09,14.33,2.48,5.52,3.72,11.54,3.72,18.05v64.77h-21.45v-56.91c0-5.24-.71-9.84-2.12-13.8-1.42-3.96-3.43-7.29-6.05-9.98-2.62-2.69-5.73-4.74-9.34-6.16-3.61-1.41-7.4-2.12-11.36-2.12-5.24,0-9.77.85-13.59,2.55-3.82,1.7-7.04,4.07-9.66,7.11-2.62,3.05-4.6,6.62-5.95,10.72-1.35,4.11-2.02,8.71-2.02,13.8v54.79h-21.45v-107.46h21.45v12.95c1.84-2.69,4.07-4.99,6.69-6.9,2.62-1.91,5.42-3.54,8.39-4.88,2.97-1.34,6.05-2.34,9.24-2.97,3.19-.64,6.33-.96,9.45-.96Z"/>
    <path class="cls-2" d="M1000.47,240.5c.56,4.25,1.84,8.14,3.82,11.68,1.98,3.54,4.46,6.62,7.43,9.24,2.97,2.62,6.33,4.67,10.09,6.16,3.75,1.49,7.68,2.23,11.79,2.23,9.06,0,16.25-1.7,21.56-5.1,5.31-3.4,9.59-9.06,12.85-16.99l19.54,8.71c-4.96,11.61-11.79,20.28-20.49,26.01-8.71,5.73-19.86,8.6-33.45,8.6-7.51,0-14.62-1.49-21.34-4.46-6.73-2.97-12.57-7.01-17.52-12.1-4.96-5.1-8.89-11.08-11.79-17.95-2.9-6.87-4.35-14.19-4.35-21.98s1.45-15.08,4.35-21.87c2.9-6.8,6.83-12.74,11.79-17.84,4.95-5.1,10.79-9.13,17.52-12.1,6.72-2.97,13.84-4.46,21.34-4.46s14.83,1.49,21.56,4.46c6.72,2.97,12.56,7.01,17.52,12.1,4.95,5.1,8.88,11.04,11.79,17.84,2.9,6.8,4.35,14.09,4.35,21.87,0,.99-.04,1.98-.11,2.97-.07.99-.11,1.98-.11,2.97h-88.13ZM1065.88,225.21c-.99-3.68-2.52-7.08-4.57-10.19-2.05-3.11-4.46-5.8-7.22-8.07-2.76-2.26-5.88-4.07-9.34-5.42-3.47-1.34-7.19-2.02-11.15-2.02s-7.51.67-11.04,2.02c-3.54,1.35-6.69,3.15-9.45,5.42-2.76,2.27-5.17,4.96-7.22,8.07-2.05,3.12-3.5,6.51-4.35,10.19h64.35Z"/>
    <path class="cls-2" d="M1156.41,178.28c7.65,0,14.83,1.49,21.56,4.46,6.72,2.97,12.56,7.01,17.52,12.1,4.95,5.1,8.88,11.08,11.79,17.95,2.9,6.87,4.35,14.2,4.35,21.98s-1.45,15.08-4.35,21.87c-2.9,6.8-6.83,12.74-11.79,17.84-4.96,5.1-10.8,9.13-17.52,12.1-6.73,2.97-13.84,4.46-21.34,4.46s-14.83-1.49-21.56-4.46c-6.73-2.97-12.57-7.01-17.52-12.1-4.96-5.1-8.89-11.04-11.79-17.84-2.9-6.8-4.35-14.09-4.35-21.87s1.45-15.11,4.35-21.98c2.9-6.87,6.83-12.85,11.79-17.95,4.95-5.1,10.79-9.13,17.52-12.1,6.72-2.97,13.84-4.46,21.34-4.46ZM1156.41,199.52c-4.67,0-9.03.92-13.06,2.76-4.04,1.84-7.61,4.35-10.72,7.54-3.12,3.19-5.56,6.9-7.33,11.15-1.77,4.25-2.65,8.85-2.65,13.8s.88,9.34,2.65,13.59c1.77,4.25,4.21,7.96,7.33,11.15,3.11,3.18,6.69,5.7,10.72,7.54,4.03,1.84,8.39,2.76,13.06,2.76s9.1-.92,13.27-2.76c4.17-1.84,7.78-4.35,10.83-7.54,3.04-3.19,5.45-6.9,7.22-11.15,1.77-4.25,2.65-8.78,2.65-13.59s-.89-9.56-2.65-13.8c-1.77-4.25-4.18-7.96-7.22-11.15-3.05-3.19-6.66-5.7-10.83-7.54-4.18-1.84-8.6-2.76-13.27-2.76Z"/>
    <path class="cls-2" d="M1279.36,178.28c6.8,0,13.09,1.17,18.9,3.5,5.8,2.34,10.83,5.52,15.08,9.56,4.25,4.04,7.61,8.81,10.09,14.33,2.48,5.52,3.72,11.54,3.72,18.05v64.77h-21.45v-56.91c0-5.24-.71-9.84-2.12-13.8-1.42-3.96-3.43-7.29-6.05-9.98-2.62-2.69-5.73-4.74-9.34-6.16-3.61-1.41-7.4-2.12-11.36-2.12-5.24,0-9.77.85-13.59,2.55-3.82,1.7-7.04,4.07-9.66,7.11-2.62,3.05-4.6,6.62-5.95,10.72-1.35,4.11-2.02,8.71-2.02,13.8v54.79h-21.45v-107.46h21.45v12.95c1.84-2.69,4.07-4.99,6.69-6.9,2.62-1.91,5.42-3.54,8.39-4.88,2.97-1.34,6.05-2.34,9.24-2.97,3.19-.64,6.33-.96,9.45-.96Z"/>
    <path class="cls-1" d="M592.41,138.15c3.96,0,7.4,1.45,10.3,4.35,2.9,2.9,4.35,6.34,4.35,10.3s-1.45,7.58-4.35,10.41c-2.9,2.83-6.34,4.25-10.3,4.25-4.25,0-7.79-1.41-10.62-4.25-2.83-2.83-4.25-6.3-4.25-10.41s1.41-7.4,4.25-10.3c2.83-2.9,6.37-4.35,10.62-4.35Z"/>
    <path class="cls-2" d="M798.24,148.98c-2.83,0-5.49.53-7.96,1.59-2.48,1.06-4.6,2.51-6.37,4.35-1.77,1.84-3.19,3.97-4.25,6.37-1.06,2.41-1.59,5.03-1.59,7.86v11.89h19.54v21.24h-19.54v86.22h-21.24v-86.22h-15.08v-21.24h15.08v-11.89c0-5.8,1.06-11.18,3.19-16.14,2.12-4.95,5.06-9.34,8.81-13.17,3.75-3.82,8.14-6.8,13.17-8.92,5.02-2.12,10.44-3.19,16.25-3.19v21.24Z"/>
  </g>
</svg>